static pose
version=1
nRows=1
nColumns=455
inDegrees=no
endheader
time	TMPG_tx	TMPG_ty	TMPG_tz	OCCG_tx	OCCG_ty	OCCG_tz	MTTETE_tx	MTTETE_ty	MTTETE_tz	OCCD_tx	OCCD_ty	OCCD_tz	TMPD_tx	TMPD_ty	TMPD_tz	C7_tx	C7_ty	C7_tz	MAN_tx	MAN_ty	MAN_tz	XYP_tx	XYP_ty	XYP_tz	T8_tx	T8_ty	T8_tz	T12_tx	T12_ty	T12_tz	COTG_tx	COTG_ty	COTG_tz	COTD_tx	COTD_ty	COTD_tz	EASG_tx	EASG_ty	EASG_tz	MTBassin_tx	MTBassin_ty	MTBassin_tz	EPSG_tx	EPSG_ty	EPSG_tz	EPSD_tx	EPSD_ty	EPSD_tz	EASD_tx	EASD_ty	EASD_tz	FHAG_tx	FHAG_ty	FHAG_tz	FHPG_tx	FHPG_ty	FHPG_tz	FBPG_tx	FBPG_ty	FBPG_tz	FBAG_tx	FBAG_ty	FBAG_tz	CLG_tx	CLG_ty	CLG_tz	CMG_tx	CMG_ty	CMG_tz	TFIBG_tx	TFIBG_ty	TFIBG_tz	THAG_tx	THAG_ty	THAG_tz	THPG_tx	THPG_ty	THPG_tz	TBPG_tx	TBPG_ty	TBPG_tz	TBAG_tx	TBAG_ty	TBAG_tz	MLG_tx	MLG_ty	MLG_tz	MMG_tx	MMG_ty	MMG_tz	MT5G_tx	MT5G_ty	MT5G_tz	MT1G_tx	MT1G_ty	MT1G_tz	MTPG_tx	MTPG_ty	MTPG_tz	CALG_tx	CALG_ty	CALG_tz	MTCALG_tx	MTCALG_ty	MTCALG_tz	FHAD_tx	FHAD_ty	FHAD_tz	FHPD_tx	FHPD_ty	FHPD_tz	FBPD_tx	FBPD_ty	FBPD_tz	FBAD_tx	FBAD_ty	FBAD_tz	CLD_tx	CLD_ty	CLD_tz	CMD_tx	CMD_ty	CMD_tz	TFIBD_tx	TFIBD_ty	TFIBD_tz	THAD_tx	THAD_ty	THAD_tz	THPD_tx	THPD_ty	THPD_tz	TBPD_tx	TBPD_ty	TBPD_tz	TBAD_tx	TBAD_ty	TBAD_tz	MLD_tx	MLD_ty	MLD_tz	MMD_tx	MMD_ty	MMD_tz	MT5D_tx	MT5D_ty	MT5D_tz	MT1D_tx	MT1D_ty	MT1D_tz	MTPD_tx	MTPD_ty	MTPD_tz	CALD_tx	CALD_ty	CALD_tz	MTCALD_tx	MTCALD_ty	MTCALD_tz	CLAVG_tx	CLAVG_ty	CLAVG_tz	ACG_tx	ACG_ty	ACG_tz	SCAPGL_tx	SCAPGL_ty	SCAPGL_tz	SCAPGH_tx	SCAPGH_ty	SCAPGH_tz	SCAPGB_tx	SCAPGB_ty	SCAPGB_tz	BHAG_tx	BHAG_ty	BHAG_tz	BHPG_tx	BHPG_ty	BHPG_tz	BBPG_tx	BBPG_ty	BBPG_tz	BBAG_tx	BBAG_ty	BBAG_tz	ELG_tx	ELG_ty	ELG_tz	EMG_tx	EMG_ty	EMG_tz	MTRG_tx	MTRG_ty	MTRG_tz	PSRG_tx	PSRG_ty	PSRG_tz	PSUG_tx	PSUG_ty	PSUG_tz	MC2G_tx	MC2G_ty	MC2G_tz	MC5G_tx	MC5G_ty	MC5G_tz	CLAVD_tx	CLAVD_ty	CLAVD_tz	ACD_tx	ACD_ty	ACD_tz	SCAPDL_tx	SCAPDL_ty	SCAPDL_tz	SCAPDH_tx	SCAPDH_ty	SCAPDH_tz	SCAPDB_tx	SCAPDB_ty	SCAPDB_tz	BHAD_tx	BHAD_ty	BHAD_tz	BHPD_tx	BHPD_ty	BHPD_tz	BBPD_tx	BBPD_ty	BBPD_tz	BBAD_tx	BBAD_ty	BBAD_tz	ELD_tx	ELD_ty	ELD_tz	EMD_tx	EMD_ty	EMD_tz	MTRD_tx	MTRD_ty	MTRD_tz	PSRD_tx	PSRD_ty	PSRD_tz	PSUD_tx	PSUD_ty	PSUD_tz	MC2D_tx	MC2D_ty	MC2D_tz	MC5D_tx	MC5D_ty	MC5D_tz	PATG_tx	PATG_ty	PATG_tz	PATD_tx	PATD_ty	PATD_tz	L5_tx	L5_ty	L5_tz	pelvis_tilt	pelvis_list	pelvis_rotation	pelvis_tx	pelvis_ty	pelvis_tz	hip_flexion_r	hip_adduction_r	hip_rotation_r	knee_angle_r_beta	knee_angle_r	ankle_flex_r	ankle_abd_r	subtalar_angle_r	mtp_angle_r	hip_flexion_l	hip_adduction_l	hip_rotation_l	knee_angle_l_beta	knee_angle_l	ankle_flex_l	ankle_abd_l	subtalar_angle_l	mtp_angle_l	flex_extension	lat_bending	axial_rotation	L4_L5_IVDjnt_r3	L4_L5_IVD_bendjnt_r1	L4_L5_IVD_rotjnt_r2	L3_L4_IVDjnt_r3	L3_L4_IVD_bendjnt_r1	L3_L4_IVD_rotjnt_r2	L2_L3_IVDjnt_r3	L2_L3_IVD_bendjnt_r1	L2_L3_IVD_rotjnt_r2	L1_L2_IVDjnt_r3	L1_L2_IVD_bendjnt_r1	L1_L2_IVD_rotjnt_r2	lumbar1_thorax_rot_x	lumbar1_thorax_rot_y	lumbar1_thorax_rot_z	lumbar1_thorax_tx	lumbar1_thorax_ty	lumbar1_thorax_tz	T1_C1_rot_z	T1_C1_rot_x	T1_C1_rot_y	C7_C6_rot_z	C7_C6_rot_y	C7_C6_rot_x	C6_C5_rot_z	C6_C5_rot_y	C6_C5_rot_x	C5_C4_rot_z	C5_C4_rot_y	C5_C4_rot_x	C4_C3_rot_z	C4_C3_rot_y	C4_C3_rot_x	C3_C2_rot_z	C3_C2_rot_y	C3_C2_rot_x	C2_C1_rot_z	C2_C1_rot_x	C2_C1_rot_y	C1_Skull_rot_z	C1_Skull_rot_y	C1_Skull_rot_x	clav_prot_r	clav_elev_r	scapula_abduction_r	scapula_elevation_r	scapula_upward_rot_r	scapula_winging_r	shoulder_elv_r	plane_of_elev_r	axial_rot_r	elbow_flexion_r	pro_sup_r	wrist_flex_r	wrist_dev_r	clav_prot_l	clav_elev_l	scapula_abduction_l	scapula_elevation_l	scapula_upward_rot_l	scapula_winging_l	shoulder_elv_l	plane_of_elev_l	axial_rot_l	elbow_flexion_l	pro_sup_l	wrist_flex_l	wrist_dev_l	pelvis_tilt_u	pelvis_list_u	pelvis_rotation_u	pelvis_tx_u	pelvis_ty_u	pelvis_tz_u	hip_flexion_r_u	hip_adduction_r_u	hip_rotation_r_u	knee_angle_r_beta_u	knee_angle_r_u	ankle_flex_r_u	ankle_abd_r_u	subtalar_angle_r_u	mtp_angle_r_u	hip_flexion_l_u	hip_adduction_l_u	hip_rotation_l_u	knee_angle_l_beta_u	knee_angle_l_u	ankle_flex_l_u	ankle_abd_l_u	subtalar_angle_l_u	mtp_angle_l_u	flex_extension_u	lat_bending_u	axial_rotation_u	L4_L5_IVDjnt_r3_u	L4_L5_IVD_bendjnt_r1_u	L4_L5_IVD_rotjnt_r2_u	L3_L4_IVDjnt_r3_u	L3_L4_IVD_bendjnt_r1_u	L3_L4_IVD_rotjnt_r2_u	L2_L3_IVDjnt_r3_u	L2_L3_IVD_bendjnt_r1_u	L2_L3_IVD_rotjnt_r2_u	L1_L2_IVDjnt_r3_u	L1_L2_IVD_bendjnt_r1_u	L1_L2_IVD_rotjnt_r2_u	lumbar1_thorax_rot_x_u	lumbar1_thorax_rot_y_u	lumbar1_thorax_rot_z_u	lumbar1_thorax_tx_u	lumbar1_thorax_ty_u	lumbar1_thorax_tz_u	T1_C1_rot_z_u	T1_C1_rot_x_u	T1_C1_rot_y_u	C7_C6_rot_z_u	C7_C6_rot_y_u	C7_C6_rot_x_u	C6_C5_rot_z_u	C6_C5_rot_y_u	C6_C5_rot_x_u	C5_C4_rot_z_u	C5_C4_rot_y_u	C5_C4_rot_x_u	C4_C3_rot_z_u	C4_C3_rot_y_u	C4_C3_rot_x_u	C3_C2_rot_z_u	C3_C2_rot_y_u	C3_C2_rot_x_u	C2_C1_rot_z_u	C2_C1_rot_x_u	C2_C1_rot_y_u	C1_Skull_rot_z_u	C1_Skull_rot_y_u	C1_Skull_rot_x_u	clav_prot_r_u	clav_elev_r_u	scapula_abduction_r_u	scapula_elevation_r_u	scapula_upward_rot_r_u	scapula_winging_r_u	shoulder_elv_r_u	plane_of_elev_r_u	axial_rot_r_u	elbow_flexion_r_u	pro_sup_r_u	wrist_flex_r_u	wrist_dev_r_u	clav_prot_l_u	clav_elev_l_u	scapula_abduction_l_u	scapula_elevation_l_u	scapula_upward_rot_l_u	scapula_winging_l_u	shoulder_elv_l_u	plane_of_elev_l_u	axial_rot_l_u	elbow_flexion_l_u	pro_sup_l_u	wrist_flex_l_u	wrist_dev_l_u
  0.00000000	  0.30341693	  1.84385092	 -0.18179443	  0.18744150	  1.81497387	 -0.15956429	  0.29938312	  1.82791550	  0.00843306	  0.35316487	  1.84481625	 -0.03126201	  0.23492960	  1.80443913	  0.01650461	  0.18029930	  1.62896785	 -0.07069848	  0.30725279	  1.54138494	 -0.12889151	  0.34048429	  1.37087480	 -0.14697064	  0.13966086	  1.36299822	 -0.06001331	  0.14870535	  1.27089601	 -0.06947662	  0.29887701	  1.32614314	 -0.22999639	  0.36753598	  1.34777712	 -0.07399271	  0.26292922	  1.13477634	 -0.23825873	  0.30651623	  1.19144634	  0.05318636	  0.12324948	  1.16842242	 -0.11489403	  0.16080016	  1.15456163	 -0.01139459	  0.35052171	  1.13384658	 -0.00233411	  0.16569845	  0.80698060	 -0.30165977	  0.09383750	  0.81560630	 -0.23729796	  0.11576921	  0.71959678	 -0.25432274	  0.16543814	  0.71498636	 -0.29894768	  0.14384695	  0.59641299	 -0.26768287	  0.19423843	  0.56492492	 -0.18463834	  0.14162156	  0.54343608	 -0.27178923	  0.13395602	  0.32784979	 -0.29639324	  0.03759607	  0.34368546	 -0.28789679	  0.02435105	  0.25504832	 -0.28114504	  0.08841226	  0.24376064	 -0.28580872	  0.04114136	  0.13151015	 -0.27624706	  0.09517820	  0.11967463	 -0.20551516	  0.13137668	  0.06745716	 -0.37035683	  0.20324217	  0.07254161	 -0.28270554	  0.16167112	  0.08562740	 -0.26277843	 -0.01460652	  0.08165702	 -0.21701853	 -0.00814200	  0.10494199	 -0.21673911	  0.35826175	  0.83596402	  0.07419296	  0.30311335	  0.85245801	  0.12226451	  0.28877875	  0.75978943	  0.12303090	  0.34711372	  0.75194981	  0.07708043	  0.30137972	  0.58576703	  0.08520662	  0.25674210	  0.56462950	  0.00104792	  0.26848190	  0.53592353	  0.12573675	  0.27108623	  0.39269720	  0.15336606	  0.22487372	  0.40708591	  0.19043421	  0.20973483	  0.31849332	  0.19499581	  0.28297653	  0.29818680	  0.13643865	  0.21046074	  0.12825034	  0.17823544	  0.19819605	  0.12068336	  0.09027714	  0.34128088	  0.07212169	  0.16721613	  0.32500831	  0.07491012	  0.05383955	  0.29820663	  0.10041833	  0.16221553	  0.13037820	  0.07742798	  0.17680276	  0.13562889	  0.10467109	  0.17056281	  0.23773288	  1.59969248	 -0.20864464	  0.16034687	  1.61717902	 -0.27137950	  0.11643700	  1.60850793	 -0.20344002	  0.12001070	  1.63482268	 -0.16180817	  0.09547656	  1.60497821	 -0.16261281	  0.13745402	  1.50330283	 -0.38679377	  0.09199686	  1.46837880	 -0.33484599	  0.09078118	  1.41137814	 -0.41484397	  0.11989607	  1.43176709	 -0.44312554	  0.07018267	  1.34636232	 -0.46723567	  0.12329751	  1.29337917	 -0.41930431	  0.13430542	  1.26357803	 -0.65016167	  0.14326736	  1.22590280	 -0.71173776	  0.08708749	  1.17658195	 -0.69151275	  0.12413492	  1.20122740	 -0.79338008	  0.08793782	  1.14235478	 -0.76463209	  0.31051243	  1.58773174	 -0.03225466	  0.28171262	  1.60049812	  0.07813462	  0.22666266	  1.59331097	  0.07332438	  0.19124300	  1.61442833	  0.04607235	  0.18078742	  1.58283072	  0.06563395	  0.30808457	  1.45587999	  0.19642849	  0.23777696	  1.43110413	  0.18128916	  0.27977905	  1.37588347	  0.24814243	  0.34231610	  1.39676528	  0.26035098	  0.29778420	  1.31312771	  0.29342413	  0.32250650	  1.27019020	  0.22368234	  0.44344931	  1.25793297	  0.39694782	  0.49865236	  1.21552600	  0.46180487	  0.44449544	  1.15946799	  0.47858422	  0.50215396	  1.18544949	  0.56139446	  0.47542264	  1.11945452	  0.53689386	  0.21852344	  0.57234374	 -0.24435825	  0.31836693	  0.55981943	  0.02430310	  0.14787742	  1.21496963	 -0.06348231	  0.01444685	  0.05440356	  0.33001004	  0.29951165	  1.11568817	 -0.11845299	 -0.00257605	 -0.18606737	 -0.04315242	  0.27547068	 -0.27547068	  0.36918158	  0.11447780	  0.00000000	  0.00000000	 -0.09571537	 -0.06184779	 -0.02226905	  0.12511166	 -0.12511166	  0.23643936	  0.15111168	  0.00000000	  0.00000000	  0.00588412	 -0.19825504	  0.25084490	  0.00084731	 -0.03590114	  0.01059125	  0.00120474	 -0.04863811	  0.01059125	  0.00145113	 -0.04958916	  0.00836149	  0.00173100	 -0.03725988	  0.00724664	  0.18923525	  0.05158489	 -0.23312763	  0.00000000	  0.00000000	  0.00000000	  0.00000000	  0.00000000	  0.00000000	  0.00000000	  0.00000000	  0.00000000	  0.00000000	  0.00000000	  0.00000000	  0.00000000	  0.00000000	  0.00000000	  0.00000000	  0.00000000	  0.00000000	  0.00000000	  0.00000000	  0.00000000	  0.00000000	  0.00000000	  0.00000000	 -0.00000000	 -0.00000000	  0.00000000	 -0.29848318	 -0.13347169	 -0.58494840	 -0.09469738	  0.10444564	  0.20826906	  0.91654018	 -0.29407792	 -0.27118991	  0.55687090	 -0.05109921	 -0.21498296	 -0.66259536	 -0.09530565	 -0.06892175	  0.01775601	  0.12749505	  0.31470531	 -0.09122131	  0.76541231	 -0.48188195	  0.49151649	  0.53588977	 -0.49584292	 -0.26185710	 -0.20009962	  0.00000000	  0.00000000	  0.00000000	  0.00000000	  0.00000000	  0.00000000	  0.00000000	  0.00000000	  0.00000000	  0.00000000	  0.00000000	  0.00000000	  0.00000000	  0.00000000	  0.00000000	  0.00000000	  0.00000000	  0.00000000	  0.00000000	  0.00000000	  0.00000000	  0.00000000	  0.00000000	  0.00000000	  0.00000000	  0.00000000	  0.00000000	  0.00000000	  0.00000000	  0.00000000	  0.00000000	  0.00000000	  0.00000000	  0.00000000	  0.00000000	  0.00000000	  0.00000000	  0.00000000	  0.00000000	  0.00000000	  0.00000000	  0.00000000	  0.00000000	  0.00000000	  0.00000000	  0.00000000	  0.00000000	  0.00000000	  0.00000000	  0.00000000	  0.00000000	  0.00000000	  0.00000000	  0.00000000	  0.00000000	  0.00000000	  0.00000000	  0.00000000	  0.00000000	  0.00000000	  0.00000000	  0.00000000	  0.00000000	  0.00000000	  0.00000000	  0.00000000	  0.00000000	  0.00000000	  0.00000000	  0.00000000	  0.00000000	  0.00000000	  0.00000000	  0.00000000	  0.00000000	  0.00000000	  0.00000000	  0.00000000	  0.00000000	  0.00000000	  0.00000000	  0.00000000	  0.00000000	  0.00000000	  0.00000000	  0.00000000	  0.00000000	  0.00000000	  0.00000000	  0.00000000	  0.00000000	  0.00000000	  0.00000000	  0.00000000	  0.00000000
